# xmcd
#
# Track frame offsets:
#	150
#	12737
#	25300
#	37618
#	49947
#	60556
#	72841
#	83676
#	97720
#	109243
#	121298
#	132282
#	144384
#	155847
#	170322
#	182701
#
# Disc length: 2552 seconds
#
# Revision: 3
# Processed by: cddbd v1.5.2PL0 Copyright (c) Steve Scherf et al.
# Submitted via: EasyCDDAExtractor 15.2.5.1
#
DISCID=cf09f610
DTITLE=Slim Dusty - Land Of Lots Of Time/Song Of Australia
DYEAR=1996
DGENRE=Country
TTITLE0=Easy Goin' Drifter
TTITLE1=The Westerway Waltz
TTITLE2=The Last Of The Valley Mail
TTITLE3=Song Of The Macleay
TTITLE4=Keela Valley
TTITLE5=The Old Woolshed Do
TTITLE6=The Land Of Lots Of Time
TTITLE7=Old Bush Mates Of Mine
TTITLE8=Mad Jack's Cockatoo
TTITLE9=Cosy Inn
TTITLE10=Charley Gray's Barn Dance
TTITLE11=The Old Rocking Horse
TTITLE12=The Dying Stockman
TTITLE13=Bill
TTITLE14=The Black Velvet Band
TTITLE15=High Wide and Handsome
EXTD=1996 1998 EMI Music Australia
EXTT0=
EXTT1=
EXTT2=
EXTT3=
EXTT4=
EXTT5=
EXTT6=
EXTT7=
EXTT8=
EXTT9=
EXTT10=
EXTT11=
EXTT12=
EXTT13=
EXTT14=
EXTT15=
PLAYORDER=
